
<svg width="143" height="34" viewBox="0 0 143 29" fill="none" xmlns="http://www.w3.org/2000/svg">
<path d="M9.95526 6.56099C9.97656 6.02832 9.82102 5.6171 9.48864 5.32733C9.16051 5.03755 8.66406 4.89267 7.99929 4.89267C7.54759 4.89267 7.15554 4.95659 6.82315 5.08443C6.49077 5.20801 6.22443 5.38059 6.02415 5.60218C5.82812 5.81951 5.70668 6.07093 5.6598 6.35645C5.61293 6.59082 5.62784 6.79537 5.70455 6.97008C5.78551 7.1448 5.91122 7.29608 6.08168 7.42392C6.25639 7.5475 6.46307 7.65616 6.7017 7.74991C6.94034 7.8394 7.19389 7.9161 7.46236 7.98002L8.58736 8.26127C9.13707 8.38912 9.63139 8.55957 10.0703 8.77264C10.5135 8.98571 10.8842 9.24778 11.1825 9.55886C11.4851 9.86994 11.6982 10.2364 11.8217 10.6583C11.9453 11.0802 11.9624 11.5638 11.8729 12.1093C11.7365 12.9104 11.419 13.605 10.9205 14.1931C10.4219 14.7769 9.76776 15.2307 8.9581 15.5546C8.14844 15.8742 7.21094 16.034 6.1456 16.034C5.08878 16.034 4.19602 15.8721 3.46733 15.5482C2.73864 15.2243 2.2081 14.7449 1.87571 14.11C1.54759 13.4708 1.44957 12.6803 1.58168 11.7385H4.25994C4.21307 12.1775 4.27699 12.5439 4.4517 12.838C4.63068 13.1278 4.89702 13.3472 5.25071 13.4964C5.6044 13.6412 6.01989 13.7137 6.49716 13.7137C6.97017 13.7137 7.38991 13.6455 7.75639 13.5091C8.12713 13.3728 8.42756 13.1831 8.65767 12.9403C8.88778 12.6974 9.02841 12.4182 9.07955 12.1029C9.13068 11.8089 9.08594 11.5617 8.94531 11.3614C8.80469 11.1611 8.57884 10.9907 8.26776 10.8501C7.96094 10.7052 7.57955 10.5773 7.12358 10.4665L5.75568 10.1086C4.69886 9.84011 3.89986 9.42037 3.35866 8.84934C2.81747 8.27832 2.62358 7.50914 2.77699 6.54181C2.91335 5.7492 3.24361 5.05673 3.76776 4.4644C4.29616 3.86781 4.96094 3.40545 5.76207 3.07733C6.56747 2.74494 7.44744 2.57875 8.40199 2.57875C9.37358 2.57875 10.1939 2.74707 10.8629 3.08372C11.532 3.4161 12.0199 3.88059 12.3267 4.47718C12.6335 5.07377 12.7273 5.76838 12.608 6.56099H9.95526ZM19.1563 11.6682L20.0959 6.03045H22.8189L21.1826 15.8486H18.5682L18.8623 14.0653H18.76C18.4574 14.6405 18.0164 15.1029 17.4368 15.4523C16.8573 15.8018 16.1989 15.9765 15.4617 15.9765C14.8054 15.9765 14.2515 15.8273 13.7998 15.529C13.3523 15.2307 13.0348 14.8067 12.8473 14.257C12.6598 13.7073 12.6279 13.0489 12.7515 12.2819L13.7998 6.03045H16.5228L15.564 11.7961C15.4745 12.3756 15.5554 12.8337 15.8069 13.1704C16.0583 13.507 16.4418 13.6753 16.9574 13.6753C17.2855 13.6753 17.603 13.6008 17.9098 13.4516C18.2209 13.2982 18.4894 13.0724 18.7152 12.7741C18.9411 12.4758 19.0881 12.1072 19.1563 11.6682ZM25.2348 16.034C24.6126 16.034 24.0736 15.9253 23.6176 15.708C23.1659 15.4864 22.8335 15.1583 22.6205 14.7236C22.4074 14.289 22.3541 13.7499 22.4607 13.1064C22.5544 12.561 22.7313 12.105 22.9912 11.7385C23.2554 11.3678 23.5771 11.0695 23.9564 10.8437C24.3357 10.6178 24.7554 10.4452 25.2156 10.3259C25.6801 10.2066 26.1595 10.1256 26.6538 10.083C27.2249 10.0233 27.6893 9.96582 28.0473 9.91042C28.4095 9.85502 28.6801 9.77619 28.8591 9.67392C29.0381 9.56738 29.1467 9.40971 29.1851 9.20091V9.16255C29.249 8.76198 29.1744 8.45091 28.9614 8.22931C28.7526 8.00346 28.418 7.89054 27.9578 7.89054C27.472 7.89054 27.0587 7.99707 26.7178 8.21014C26.3811 8.42321 26.1403 8.6938 25.9955 9.02193L23.5153 8.81738C23.7369 8.22079 24.0714 7.70517 24.5189 7.27051C24.9706 6.83159 25.5139 6.49494 26.1489 6.26056C26.7838 6.02193 27.4955 5.90261 28.2838 5.90261C28.8293 5.90261 29.3385 5.96653 29.8115 6.09437C30.2888 6.22221 30.7 6.42037 31.0452 6.68883C31.3946 6.9573 31.646 7.30247 31.7994 7.72434C31.9571 8.14196 31.9891 8.64267 31.8953 9.22647L30.7895 15.8486H28.2071L28.4372 14.4871H28.3605C28.1517 14.7939 27.896 15.0645 27.5935 15.2989C27.2909 15.529 26.9436 15.7101 26.5516 15.8422C26.1595 15.9701 25.7206 16.034 25.2348 16.034ZM26.3278 14.1547C26.7241 14.1547 27.0885 14.0759 27.4209 13.9182C27.7575 13.7563 28.0345 13.539 28.2518 13.2662C28.4734 12.9935 28.6141 12.6846 28.6737 12.3394L28.8399 11.2975C28.7547 11.3529 28.6311 11.4019 28.4692 11.4445C28.3115 11.4871 28.1389 11.5276 27.9514 11.566C27.7682 11.6001 27.5828 11.632 27.3953 11.6618C27.2078 11.6874 27.0395 11.713 26.8903 11.7385C26.5622 11.7854 26.2682 11.86 26.0082 11.9623C25.7483 12.0645 25.5374 12.203 25.3754 12.3778C25.2135 12.5482 25.1134 12.7613 25.075 13.017C25.0153 13.3877 25.1027 13.6711 25.3371 13.8671C25.5757 14.0589 25.906 14.1547 26.3278 14.1547ZM45.1761 2.75772L43.0028 15.8486H40.6121L36.2975 7.60929H36.1952L34.821 15.8486H32.0532L34.2265 2.75772H36.6555L40.9509 10.9907H41.0596L42.4211 2.75772H45.1761ZM48.7873 16.0404C47.7858 16.0404 46.957 15.8273 46.3007 15.4012C45.6445 14.9708 45.1821 14.3742 44.9137 13.6114C44.6495 12.8444 44.6005 11.9516 44.7667 10.9331C44.9286 9.92747 45.2652 9.0475 45.7766 8.29323C46.288 7.53897 46.9378 6.95304 47.7262 6.53542C48.5145 6.11355 49.403 5.90261 50.3917 5.90261C51.3888 5.90261 52.2155 6.11781 52.8718 6.54821C53.528 6.97434 53.9904 7.57093 54.2588 8.33798C54.5273 9.10502 54.5784 9.99778 54.4123 11.0162C54.2461 12.0177 53.9052 12.8955 53.3895 13.6498C52.8739 14.404 52.224 14.9921 51.44 15.414C50.6559 15.8316 49.7716 16.0404 48.7873 16.0404ZM49.0557 13.931C49.5159 13.931 49.9229 13.801 50.2766 13.5411C50.6346 13.2769 50.9307 12.9189 51.1651 12.4672C51.4037 12.0113 51.5699 11.4956 51.6637 10.9204C51.7574 10.3536 51.7638 9.85076 51.6828 9.41184C51.6019 8.96866 51.4314 8.61923 51.1715 8.36355C50.9158 8.10787 50.5642 7.98002 50.1168 7.98002C49.6566 7.98002 49.2475 8.11213 48.8895 8.37633C48.5316 8.63627 48.2354 8.99423 48.001 9.4502C47.7667 9.90616 47.6026 10.4239 47.5088 11.0035C47.4194 11.566 47.413 12.0688 47.4897 12.512C47.5664 12.9509 47.7347 13.2982 47.9946 13.5539C48.2546 13.8053 48.6083 13.931 49.0557 13.931ZM61.3361 6.03045L60.9973 8.07591H55.0783L55.4235 6.03045H61.3361ZM57.1493 3.67818H59.8723L58.351 12.8316C58.3084 13.083 58.3148 13.279 58.3702 13.4197C58.4256 13.556 58.5172 13.6519 58.6451 13.7073C58.7772 13.7627 58.9348 13.7904 59.1181 13.7904C59.2459 13.7904 59.3759 13.7797 59.508 13.7584C59.6401 13.7329 59.7402 13.7137 59.8084 13.7009L59.9107 15.7272C59.7573 15.7741 59.5506 15.8252 59.2907 15.8806C59.035 15.936 58.7324 15.9701 58.383 15.9829C57.7182 16.0084 57.1557 15.9211 56.6955 15.7208C56.2353 15.5162 55.905 15.203 55.7047 14.7812C55.5044 14.3593 55.4618 13.8287 55.5769 13.1895L57.1493 3.67818ZM63.3477 16.034C62.7255 16.034 62.1865 15.9253 61.7305 15.708C61.2788 15.4864 60.9464 15.1583 60.7333 14.7236C60.5203 14.289 60.467 13.7499 60.5735 13.1064C60.6673 12.561 60.8441 12.105 61.1041 11.7385C61.3683 11.3678 61.69 11.0695 62.0693 10.8437C62.4485 10.6178 62.8683 10.4452 63.3285 10.3259C63.793 10.2066 64.2724 10.1256 64.7667 10.083C65.3377 10.0233 65.8022 9.96582 66.1602 9.91042C66.5224 9.85502 66.793 9.77619 66.972 9.67392C67.151 9.56738 67.2596 9.40971 67.298 9.20091V9.16255C67.3619 8.76198 67.2873 8.45091 67.0743 8.22931C66.8654 8.00346 66.5309 7.89054 66.0707 7.89054C65.5849 7.89054 65.1716 7.99707 64.8306 8.21014C64.494 8.42321 64.2532 8.6938 64.1083 9.02193L61.6282 8.81738C61.8498 8.22079 62.1843 7.70517 62.6318 7.27051C63.0835 6.83159 63.6268 6.49494 64.2618 6.26056C64.8967 6.02193 65.6083 5.90261 66.3967 5.90261C66.9422 5.90261 67.4514 5.96653 67.9244 6.09437C68.4017 6.22221 68.8129 6.42037 69.1581 6.68883C69.5075 6.9573 69.7589 7.30247 69.9123 7.72434C70.07 8.14196 70.102 8.64267 70.0082 9.22647L68.9024 15.8486H66.32L66.5501 14.4871H66.4734C66.2646 14.7939 66.0089 15.0645 65.7064 15.2989C65.4038 15.529 65.0565 15.7101 64.6645 15.8422C64.2724 15.9701 63.8335 16.034 63.3477 16.034ZM64.4407 14.1547C64.837 14.1547 65.2014 14.0759 65.5338 13.9182C65.8704 13.7563 66.1474 13.539 66.3647 13.2662C66.5863 12.9935 66.727 12.6846 66.7866 12.3394L66.9528 11.2975C66.8676 11.3529 66.744 11.4019 66.5821 11.4445C66.4244 11.4871 66.2518 11.5276 66.0643 11.566C65.8811 11.6001 65.6957 11.632 65.5082 11.6618C65.3207 11.6874 65.1524 11.713 65.0032 11.7385C64.6751 11.7854 64.3811 11.86 64.1211 11.9623C63.8612 12.0645 63.6502 12.203 63.4883 12.3778C63.3264 12.5482 63.2262 12.7613 63.1879 13.017C63.1282 13.3877 63.2156 13.6711 63.45 13.8671C63.6886 14.0589 64.0189 14.1547 64.4407 14.1547ZM70.1661 15.8486L72.3394 2.75772H81.1604L80.7769 5.03968H74.7236L74.2122 8.159H79.8117L79.4282 10.441H73.8287L73.3174 13.5667H79.3962L79.0127 15.8486H70.1661ZM83.9183 10.1725L82.9722 15.8486H80.2556L81.892 6.03045H84.4808L84.1995 7.7627H84.3082C84.6193 7.18741 85.0582 6.73358 85.6249 6.40119C86.196 6.0688 86.8458 5.90261 87.5745 5.90261C88.2563 5.90261 88.8252 6.05176 89.2812 6.35005C89.7414 6.64835 90.0653 7.07235 90.2528 7.62207C90.4445 8.17179 90.4765 8.83017 90.3487 9.59721L89.3004 15.8486H86.5773L87.5425 10.083C87.6406 9.48216 87.5639 9.01341 87.3124 8.67676C87.0653 8.33585 86.6668 8.16539 86.1171 8.16539C85.7506 8.16539 85.414 8.24423 85.1072 8.4019C84.8004 8.55957 84.5425 8.78968 84.3337 9.09224C84.1292 9.39054 83.9907 9.75062 83.9183 10.1725ZM94.9826 16.0404C93.9769 16.0404 93.1438 15.8358 92.4833 15.4268C91.8228 15.0134 91.3583 14.4296 91.0898 13.6753C90.8256 12.9168 90.7809 12.0198 90.9556 10.9843C91.126 9.97434 91.4691 9.08798 91.9847 8.3252C92.5046 7.56241 93.1566 6.96795 93.9407 6.54181C94.7248 6.11568 95.5983 5.90261 96.5614 5.90261C97.2091 5.90261 97.7951 6.00701 98.3192 6.21582C98.8476 6.42037 99.2865 6.73144 99.636 7.14906C99.9854 7.56241 100.224 8.08017 100.352 8.70233C100.484 9.32448 100.482 10.0532 100.345 10.8884L100.224 11.6363H91.94L92.202 9.94877H97.9293C97.9932 9.55673 97.9677 9.20943 97.8526 8.90687C97.7375 8.60431 97.5458 8.36781 97.2773 8.19735C97.0088 8.02264 96.6786 7.93528 96.2865 7.93528C95.886 7.93528 95.511 8.03329 95.1615 8.22931C94.8121 8.42534 94.5181 8.68315 94.2794 9.00275C94.0451 9.31809 93.8938 9.66113 93.8256 10.0319L93.5252 11.7066C93.44 12.2222 93.457 12.6505 93.5763 12.9914C93.6999 13.3323 93.913 13.588 94.2155 13.7584C94.5181 13.9246 94.9016 14.0077 95.3661 14.0077C95.6686 14.0077 95.952 13.9651 96.2162 13.8799C96.4847 13.7947 96.7233 13.6689 96.9321 13.5028C97.1409 13.3323 97.3114 13.1214 97.4435 12.8699L99.93 13.0361C99.6999 13.6412 99.3505 14.1697 98.8817 14.6214C98.413 15.0688 97.8483 15.4182 97.1878 15.6697C96.5316 15.9168 95.7965 16.0404 94.9826 16.0404ZM100.428 15.8486L102.065 6.03045H104.653L104.372 7.7627H104.481C104.779 7.18741 105.195 6.73358 105.727 6.40119C106.264 6.0688 106.867 5.90261 107.536 5.90261C108.201 5.90261 108.742 6.07093 109.16 6.40758C109.582 6.73997 109.825 7.19167 109.888 7.7627H109.991C110.281 7.2002 110.717 6.75062 111.301 6.41397C111.885 6.07306 112.537 5.90261 113.257 5.90261C114.165 5.90261 114.859 6.19451 115.341 6.77832C115.822 7.36213 115.974 8.18457 115.795 9.24565L114.695 15.8486H111.972L112.995 9.78258C113.076 9.23287 112.995 8.82377 112.752 8.55531C112.509 8.28258 112.17 8.14622 111.736 8.14622C111.241 8.14622 110.83 8.30389 110.502 8.61923C110.174 8.93031 109.972 9.34153 109.895 9.85289L108.879 15.8486H106.239L107.274 9.72505C107.347 9.23926 107.268 8.85573 107.038 8.57448C106.812 8.28897 106.473 8.14622 106.021 8.14622C105.723 8.14622 105.44 8.22292 105.171 8.37633C104.907 8.52548 104.683 8.73642 104.5 9.00914C104.317 9.27761 104.197 9.59295 104.142 9.95517L103.145 15.8486H100.428Z" fill="white" style="fill:white;fill-opacity:1;"/>
<path d="M125.309 17.9111L127.289 5.8291H130.348L128.367 17.9111H125.309ZM121.535 13.3994L122.051 10.3408H134.109L133.605 13.3994H121.535Z" fill="#2E6AFD" style="fill:#2E6AFD;fill:color(display-p3 0.1818 0.4162 0.9917);fill-opacity:1;"/>
<path d="M1 27.1514C36.579 22.6439 114.437 15.1082 141.238 21.0258" stroke="#2E6AFD" style="stroke:#2E6AFD;stroke:color(display-p3 0.1818 0.4162 0.9917);stroke-opacity:1;" stroke-width="2"/>
</svg>
